/* XPM */
static char * bottom_left_inactive_xpm[] = {
"24 24 3 1",
" 	c None",
"+	c #1d2839",
".	c #c9d3e3",
"...++                   ",
"...++                   ",
"...++                   ",
"...++                   ",
"...++                   ",
"...++                   ",
"...++                   ",
"...++                   ",
"...++                   ",
"...++                   ",
"...++                   ",
"...++                   ",
"...++                   ",
"...++                   ",
"...++                   ",
"...++                   ",
"...++                   ",
"...++                   ",
"...++                   ",
"...+++++++++++++++++++++",
"...+++++++++++++++++++++",
"........................",
"........................",
"........................"};
