/* XPM */
static char * close_prelight_xpm[] = {
"34 28 4 1",
" 	c None",
".	c #0d1829",
"+	c #ffffff",
"@	c #000000",
"                                  ",
"                                  ",
"                                  ",
"..................................",
".++++++++++++++++++++++++++++++++.",
".++++++++++++++++++++++++++++++++.",
".++++++++++++++++++++++++++++++++.",
".++++++++++++++++++++++++++++++++.",
"..................................",
"..................................",
"............@@......@@............",
"............@@@....@@@............",
".............@@@..@@@.............",
"..............@@@@@@..............",
"...............@@@@...............",
"...............@@@@...............",
"..............@@@@@@..............",
".............@@@..@@@.............",
"............@@@....@@@............",
"............@@......@@............",
"..................................",
"..................................",
"..................................",
"..................................",
"..................................",
"..................................",
"..................................",
".................................."};
