/* XPM */
static char * close_inactive_xpm[] = {
"34 28 3 1",
" 	c None",
".	c #1d2839",
"+	c #4285F4",
"                                  ",
"                                  ",
"                                  ",
"..................................",
"..................................",
"..................................",
"..................................",
"..................................",
"..................................",
"..................................",
"............++......++............",
"............+++....+++............",
".............+++..+++.............",
"..............++++++..............",
"...............++++...............",
"...............++++...............",
"..............++++++..............",
".............+++..+++.............",
"............+++....+++............",
"............++......++............",
"..................................",
"..................................",
"..................................",
"..................................",
"..................................",
"..................................",
"..................................",
".................................."};
