/* XPM */
static char * hide_inactive_xpm[] = {
"34 37 3 1",
" 	c None",
".	c #1d2839",
"+	c #c9d3e3",
"                                  ",
"                                  ",
"                                  ",
"                                  ",
"                                  ",
"..................................",
"..................................",
"..................................",
"..................................",
"..................................",
"..................................",
"..................................",
"..................................",
"..................................",
"..................................",
"..................................",
"..................................",
"..................................",
"..................................",
"..................................",
"..................................",
"..................................",
"..................................",
"............++++++++++............",
"............++++++++++............",
"..................................",
"..................................",
"..................................",
"..................................",
"..................................",
"..................................",
"..................................",
"..................................",
"..................................",
"..................................",
"..................................",
".................................."};
