/* XPM */
static char * hide_pressed_xpm[] = {
"34 37 4 1",
" 	c None",
".	c #EDECEB",
"+	c #000000",
"@	c #FFFFFF",
"                                  ",
"                                  ",
"                                  ",
"                                  ",
"                                  ",
"..................................",
"..................................",
"..................................",
"..................................",
"..................................",
"..................................",
"..................................",
"..................................",
"..................................",
"..................................",
"..................................",
"..................................",
"..................................",
"..................................",
"..................................",
"..................................",
"..................................",
"..................................",
"............@@@@@@@@@@............",
"............@@@@@@@@@@............",
"..................................",
"..................................",
"..................................",
"..................................",
"..................................",
"..................................",
"..................................",
"..................................",
"..................................",
"..................................",
"..................................",
".................................."};
