/* XPM */
static char * maximize_active_xpm[] = {
"34 37 3 1",
" 	c None",
".	c #1d2839",
"+	c #FFFFFF",
"                                  ",
"                                  ",
"                                  ",
"                                  ",
"                                  ",
"..................................",
"..................................",
"..................................",
"..................................",
"..................................",
"..................................",
"..................................",
"..................................",
"..................................",
"..................................",
"..................................",
"............++++++++++............",
"............++++++++++............",
"............++......++............",
"............++......++............",
"............++......++............",
"............++......++............",
"............++......++............",
"............++......++............",
"............++++++++++............",
"............++++++++++............",
"..................................",
"..................................",
"..................................",
"..................................",
"..................................",
"..................................",
"..................................",
"..................................",
"..................................",
"..................................",
".................................."};
