/* XPM */
static char * menu_inactive_xpm[] = {
"32 37 3 1",
" 	c None",
".	c #0d1829",
"+	c #4285F4",
"                                ",
"                                ",
"                                ",
"                                ",
"                                ",
"................................",
"................................",
"................................",
"................................",
"................................",
"................................",
"................................",
"................................",
"................................",
"................................",
"................................",
"...........++++++++++...........",
"...........++++++++++...........",
"................................",
"................................",
"...........++++++++++...........",
"...........++++++++++...........",
"................................",
"................................",
"...........++++++++++...........",
"...........++++++++++...........",
"................................",
"................................",
"................................",
"................................",
"................................",
"................................",
"................................",
"................................",
"................................",
"................................",
"................................"};
