/* XPM */
static char * menu_active_xpm[] = {
"32 37 3 1",
" 	c None",
".	c #1d2839",
"+	c #FFFFFF",
"                                ",
"                                ",
"                                ",
"                                ",
"                                ",
"................................",
"................................",
"................................",
"................................",
"................................",
"................................",
"................................",
"................................",
"................................",
"................................",
"................................",
"...........++++++++++...........",
"...........++++++++++...........",
"................................",
"................................",
"...........++++++++++...........",
"...........++++++++++...........",
"................................",
"................................",
"...........++++++++++...........",
"...........++++++++++...........",
"................................",
"................................",
"................................",
"................................",
"................................",
"................................",
"................................",
"................................",
"................................",
"................................",
"................................"};
