/* XPM */
static char * right_inactive_xpm[] = {
"5 24 3 1",
" 	c None",
".	c #1d2839",
"+	c #c9d3e3",
"..+++",
"..+++",
"..+++",
"..+++",
"..+++",
"..+++",
"..+++",
"..+++",
"..+++",
"..+++",
"..+++",
"..+++",
"..+++",
"..+++",
"..+++",
"..+++",
"..+++",
"..+++",
"..+++",
"..+++",
"..+++",
"..+++",
"..+++",
"..+++"};
