/* XPM */
static char * stick_toggled_prelight_xpm[] = {
"34 28 3 1",
" 	c None",
".	c #0d1829",
"+	c #ffffff",
"                                  ",
"                                  ",
"                                  ",
"..................................",
".++++++++++++++++++++++++++++++++.",
".++++++++++++++++++++++++++++++++.",
".++++++++++++++++++++++++++++++++.",
".++++++++++++++++++++++++++++++++.",
"..................................",
"..................................",
".............++++++++.............",
"............++++++++++............",
"............++......++............",
"............++.++++.++............",
"............++.++++.++............",
"............++.++++.++............",
"............++.++++.++............",
"............++......++............",
"............++++++++++............",
".............++++++++.............",
"..................................",
"..................................",
"..................................",
"..................................",
"..................................",
"..................................",
"..................................",
".................................."};
