/* XPM */
static char * title_5_active_xpm[] = {
"8 28 3 1",
" 	c None",
".	c #4285F4",
":	c #1d2839"
"........",
"........",
"........",
"::::::::",
"::::::::",
"::::::::",
"::::::::",
"::::::::",
"::::::::",
"::::::::",
"::::::::",
"::::::::",
"::::::::",
"::::::::",
"::::::::",
"::::::::",
"::::::::",
"::::::::",
"::::::::",
"::::::::",
"::::::::",
"::::::::",
"::::::::",
"::::::::",
"::::::::",
"::::::::",
"::::::::",
"::::::::"};
