/* XPM */
static char * title_1_active_xpm[] = {
"8 37 3 1",
" 	c None",
".	c #4285F4",
":	c #1d2839",
"........",
"........",
"........",
"........",
"........",
"::::::::",
"::::::::",
"::::::::",
"::::::::",
"::::::::",
"::::::::",
"::::::::",
"::::::::",
"::::::::",
"::::::::",
"::::::::",
"::::::::",
"::::::::",
"::::::::",
"::::::::",
"::::::::",
"::::::::",
"::::::::",
"::::::::",
"::::::::",
"::::::::",
"::::::::",
"::::::::",
"::::::::",
"::::::::",
"::::::::",
"::::::::",
"::::::::",
"::::::::",
"::::::::",
"::::::::",
"::::::::"};
