/* XPM */
static char * top_left_inactive_xpm[] = {
"8 37 3 1",
" 	c None",
"+	c #1d2839",
".	c #c9d3e3",
"........",
"........",
"........",
"...+++++",
"...+++++",
"...+++++",
"...+++++",
"...+++++",
"...+++++",
"...+++++",
"...+++++",
"...+++++",
"...+++++",
"...+++++",
"...+++++",
"...+++++",
"...+++++",
"...+++++",
"...+++++",
"...+++++",
"...+++++",
"...+++++",
"...+++++",
"...+++++",
"...+++++",
"...+++++",
"...+++++",
"...+++++",
"...+++++",
"...+++++",
"...+++++",
"...+++++",
"...+++++",
"...+++++",
"...+++++",
"...+++++",
"...+++++"};
